<?xml version="1.0" encoding="UTF-8" standalone="no"?>
<!--	Created with Inkscape (http://www.inkscape.org/)
	Reorganised with TEXT EDITOR (gedit or Bluefish under Ubuntu) ( Use tab's lenght : 6 ).
┌───────────────────────────────────────────────────────────────────────────────────────────────────────
│	This file represents the french alphanumerical keyboard (version 4):
│	- it uses style sheet (css) [see details at section "style"]
│	- it displays the standard pad
│	- and optionnaly
│		* for some keys : the draw and/or the text (↹ and/or TAB …)
│		* the Linux additional glyphs
│	- the lower case of "standard" letters are not displayed.
│	- keys and inscriptions are geographically referenced : "kb" + line(number) + range(letter)
└───────────────────────────────────────────────────────────────────────────────────────────────────────
	W3C validation
┌───────────────────────────────────────────────────────────────────────────────────────────────────────
│	Validation Output: 2 Warnings
│
│	Below is a list of the warning message(s) produced when checking your document.
│
│	Info : The Content-Type was image/svg+xml. Using the XML parser (not resolving external entities).
│
│	⚠ Line 45, Column 26: This validator does not validate Inkscape extensions properly.
│	  Inkscape-specific errors may go unnoticed.
│			width="810" height="276">
│	⚠ Consider adding a lang attribute to the html start tag to declare the language of this document.
│
│	Congratulations
│
│	The uploaded document "KB_France.svg" was successfully checked as SVG 1.1 + XHTML + MathML 3.0.
│	This means that the resource in question identified itself as "SVG 1.1 + XHTML + MathML 3.0" and that we successfully performed
│	a formal validation of it. The parser implementations we used for this check are based on Compound XML and libxml2 (XML).
└───────────────────────────────────────────────────────────────────────────────────────────────────────── -->

<svg id="svg2"
	xmlns:dc="http://purl.org/dc/elements/1.1/"
	xmlns:cc="http://creativecommons.org/ns#"
	xmlns:rdf="http://www.w3.org/1999/02/22-rdf-syntax-ns#"
	xmlns:svg="http://www.w3.org/2000/svg"
	xmlns:xlink="http://www.w3.org/1999/xlink"
	xmlns="http://www.w3.org/2000/svg"
	xmlns:inkscape="http://www.inkscape.org/namespaces/inkscape"
	inkscape:version="0.48.2 r9819"
	xmlns:sodipodi="http://sodipodi.sourceforge.net/DTD/sodipodi-0.dtd"
	sodipodi:version="0.32"
	width="810" height="276">

<title>KB_France</title>

<defs id="defs4">
	<linearGradient id="linearGradient1035" inkscape:collect="always">
		<stop id="stop1031" offset="0" style="stop-color:#181818;stop-opacity:1" />
		<stop id="stop1033" offset="1" style="stop-color:#e7e7e7;stop-opacity:0" />
	</linearGradient>
	<linearGradient id="linearGradient1037" xlink:href="#linearGradient1035" gradientUnits="userSpaceOnUse" inkscape:collect="always"
		x1="79.152" y1="214.48" x2="104.15" y2="234.48" gradientTransform="translate(4.348,21.516)" />

	<marker id="TriangleOutM" inkscape:stockid="TriangleOutM"
		refX="0" refY="0" orient="auto" style="overflow:visible">
	<path id="path4356" style="fill-rule:evenodd;stroke:Black;stroke-width:1pt;marker-start:none"
		d="M 5.77,0 -2.88,5 -2.88,-5 5.77,0 z" transform="scale(0.4,0.4)" />
	</marker>
	<style id="style6" type="text/css">
<!--
┌────────────────────────────────────────────────────────────────────────────────────────────────────────
│ General  : «#» style for «id» ; «.» class style (for particular style in group)
│	DRAW styles : K_ : particular key style | D_ : circle for dead keys
│	TEXT styles : «text» : common style for all text | T_ : text style | _L : large ; _s : small
└────────────────────────────────────────────────────────────────────────────────────────────────────────-->

	<![CDATA[

	text			{ font-weight:bold;font-family:Nimbus Sans L, sans-serif ;}
	#T_others		{ font-size:16px; text-align:right ;text-anchor:start ;}
	#T_alterninsc	{ font-size:14px; fill:DimGray	;fill-opacity:1 ;stroke:none; text-align:right ;text-anchor:start ;}
	#T_stdletters	{ font-size:21px; fill:Black		;fill-opacity:1 ;stroke:none; text-align:center;text-anchor:middle;}
	#T_stdspecial	{ font-size:18px; fill:Black		;fill-opacity:1 ;stroke:none; text-align:center;text-anchor:middle;}
	#T_digits		{ font-size:18px; fill:Silver		;fill-opacity:1 ;stroke:none; text-align:center;text-anchor:middle;}
	#T_AltGr		{ font-size:18px; fill:Blue		;fill-opacity:1 ;stroke:none; text-align:center;text-anchor:middle;}
	#T_AltGrSh		{ font-size:18px; fill:DodgerBlue	;fill-opacity:1 ;stroke:none; text-align:center;text-anchor:middle;}
	.T_UpAltGr		{ font-size:18px; fill:SkyBlue	;}
	.T_DeadKey		{ font-size:21px; fill:Red		;font-family:sans ;}
	.O_DeadKey		{ font-size:16px; fill:Grey		;font-family:sans ;}

	.T_size_s		{ font-size:12px; fill:Black		;fill-opacity:1 ;stroke:none; text-align:right ;text-anchor:start ;}
	.T_size_L		{ font-size:21px;}

	#GlyphKey		{ fill:White	;stroke:Grey	;stroke-width:1;}
	#ModifKey		{ fill:Gainsboro  ;stroke:Grey	;stroke-width:1;}
	#OtherKey		{ fill:Silver	;stroke:Grey	;stroke-width:1;}
	.K_AltGr		{ fill:PowderBlue	;stroke:Grey	;stroke-width:1;}
	]]>
	</style>
</defs>

<!-- ========  Keyboard background ======== -->
<g inkscape:groupmode="layer" id="Background" inkscape:label="Background">
	<rect id="Bckgrd" x="0" y="0" width="810" height="276" style="fill:Wheat;stroke:none" />
</g>

<!-- ========	 Keys	======== -->
<g inkscape:groupmode="layer" id="Keys" inkscape:label="Keys">
  <g id="GlyphKey">
<!-- Keys dimentions : ↔ 48 x ↕ 48 ; deplacement ↦ 54 , ↧ 54 -->
<!-- Num keys /- Standard letters keys / Specials glyphs keys / Ponctuation keys -->

	<rect id="K_kb2a" x="6"	y="6"  width="48" height="48" rx="6" ry="6" />
	<use  id="K_kb2b" xlink:href="#K_kb2a" transform="translate(54,0)"/>
	<use  id="K_kb2c" xlink:href="#K_kb2a" transform="translate(108,0)"/>
	<use  id="K_kb2d" xlink:href="#K_kb2a" transform="translate(162,0)"/>
	<use  id="K_kb2e" xlink:href="#K_kb2a" transform="translate(216,0)"/>
	<use  id="K_kb2f" xlink:href="#K_kb2a" transform="translate(270,0)"/>
	<use  id="K_kb2g" xlink:href="#K_kb2a" transform="translate(324,0)"/>
	<use  id="K_kb2h" xlink:href="#K_kb2a" transform="translate(378,0)"/>
	<use  id="K_kb2i" xlink:href="#K_kb2a" transform="translate(432,0)"/>
	<use  id="K_kb2j" xlink:href="#K_kb2a" transform="translate(486,0)"/>
	<use  id="K_kb2k" xlink:href="#K_kb2a" transform="translate(540,0)"/>
	<use  id="K_kb2l" xlink:href="#K_kb2a" transform="translate(594,0)"/>
	<use  id="K_kb2m" xlink:href="#K_kb2a" transform="translate(648,0)"/>

	<use  id="K_kb3b" xlink:href="#K_kb2a" transform="translate(80,54)"/>
	<use  id="K_kb3c" xlink:href="#K_kb2a" transform="translate(134,54)"/>
	<use  id="K_kb3d" xlink:href="#K_kb2a" transform="translate(188,54)"/>
	<use  id="K_kb3e" xlink:href="#K_kb2a" transform="translate(242,54)"/>
	<use  id="K_kb3f" xlink:href="#K_kb2a" transform="translate(296,54)"/>
	<use  id="K_kb3g" xlink:href="#K_kb2a" transform="translate(350,54)"/>
	<use  id="K_kb3h" xlink:href="#K_kb2a" transform="translate(404,54)"/>
	<use  id="K_kb3i" xlink:href="#K_kb2a" transform="translate(458,54)"/>
	<use  id="K_kb3j" xlink:href="#K_kb2a" transform="translate(512,54)"/>
	<use  id="K_kb3k" xlink:href="#K_kb2a" transform="translate(566,54)"/>
	<use  id="K_kb3l" xlink:href="#K_kb2a" transform="translate(620,54)"/>
	<use  id="K_kb3m" xlink:href="#K_kb2a" transform="translate(674,54)"/>

	<use  id="K_kb4b" xlink:href="#K_kb2a" transform="translate(96,108)"/>
	<use  id="K_kb4c" xlink:href="#K_kb2a" transform="translate(150,108)"/>
	<use  id="K_kb4d" xlink:href="#K_kb2a" transform="translate(204,108)"/>
	<use  id="K_kb4e" xlink:href="#K_kb2a" transform="translate(258,108)"/>
	<use  id="K_kb4f" xlink:href="#K_kb2a" transform="translate(312,108)"/>
	<use  id="K_kb4g" xlink:href="#K_kb2a" transform="translate(366,108)"/>
	<use  id="K_kb4h" xlink:href="#K_kb2a" transform="translate(420,108)"/>
	<use  id="K_kb4i" xlink:href="#K_kb2a" transform="translate(474,108)"/>
	<use  id="K_kb4j" xlink:href="#K_kb2a" transform="translate(528,108)"/>
	<use  id="K_kb4k" xlink:href="#K_kb2a" transform="translate(582,108)"/>
	<use  id="K_kb4l" xlink:href="#K_kb2a" transform="translate(636,108)"/>
	<use  id="K_kb4m" xlink:href="#K_kb2a" transform="translate(690,108)"/>

	<use  id="K_kb5b" xlink:href="#K_kb2a" transform="translate(62,162)"/>
	<use  id="K_kb5c" xlink:href="#K_kb2a" transform="translate(116,162)"/>
	<use  id="K_kb5d" xlink:href="#K_kb2a" transform="translate(170,162)"/>
	<use  id="K_kb5e" xlink:href="#K_kb2a" transform="translate(224,162)"/>
	<use  id="K_kb5f" xlink:href="#K_kb2a" transform="translate(278,162)"/>
	<use  id="K_kb5g" xlink:href="#K_kb2a" transform="translate(332,162)"/>
	<use  id="K_kb5h" xlink:href="#K_kb2a" transform="translate(386,162)"/>
	<use  id="K_kb5i" xlink:href="#K_kb2a" transform="translate(440,162)"/>
	<use  id="K_kb5j" xlink:href="#K_kb2a" transform="translate(494,162)"/>
	<use  id="K_kb5k" xlink:href="#K_kb2a" transform="translate(548,162)"/>
	<use  id="K_kb5l" xlink:href="#K_kb2a" transform="translate(602,162)"/>

	<rect id="K_kb6d" x="192" y="222" width="364" height="48" rx="6" ry="6" />
  </g>

<!-- Modification keys -->
  <g id="ModifKey">
	<rect id="K_kb4a" x="6"   y="114" width="90"  height="48" rx="6" ry="6" />

	<rect id="K_kb5a" x="6"   y="168" width="56"  height="48" rx="6" ry="6" />
	<rect id="K_kb5m" x="662" y="168" width="142" height="48" rx="6" ry="6" />

	<rect id="K_kb6k" x="562" y="222" width="56"  height="48" rx="6" ry="6" class="K_AltGr"/>
  </g>

<!-- Others keys  -->

  <g id="OtherKey">
	<!-- Backspace  --> <rect id="K_kb2n" x="708" y="6"  width="96" height="48" rx="6" ry="6" />

	<!-- Tabulation --> <rect id="K_kb3a" x="6"   y="60" width="74" height="48" rx="6" ry="6" />
	<!-- Enter key --> <path id="K_kb3n"
				d="m 740.16,60.01 c -3.44,0 -5.94,2.56 -5.94,5.24 l -0.06,36.88 c 0,3.31 2.69,6.37 6,6.37 l 3.99,0 c 3.08,0 5.7,3.04 5.7,5.59
				c 0,2.55 0.24,29.16 0.24,42.44 c 0,1.99 2.02,5.97 6,5.97 c 13.94,0 27.88,0 41.82,0 c 3.98,0 5.97,-3.98 5.97,-5.97
				c 0,-27.22 0,-63.31 0,-90.53 c 0,-1.99 -1.99,-6 -5.97,-6 z" />

	<!-- Ctrl 1 --> <rect id="K_kb6a" x="6"	y="222" width="56" height="48" rx="6" ry="6" />
	<!-- Logo 1 --> <rect id="K_kb6b" x="68"	y="222" width="56" height="48" rx="6" ry="6" />
	<!-- Alt	--> <rect id="K_kb6c" x="130"	y="222" width="56" height="48" rx="6" ry="6" />
	<!-- Logo 2 --> <rect id="K_kb6l" x="624"	y="222" width="56" height="48" rx="6" ry="6" />
	<!-- Menu   --> <rect id="K_kb6m" x="686"	y="222" width="56" height="48" rx="6" ry="6" />
	<!-- Ctrl 2 --> <rect id="K_kb6n" x="748"	y="222" width="56" height="48" rx="6" ry="6" />
  </g>

</g>
<!-- ========	 Key signs	======== -->
<g inkscape:groupmode="layer" id="DrawedInscr" inkscape:label="DrawedInscr">

	<!--  Logo keys : neutral window -->
	<rect id="S_kb6b" x="83.5" y="236" width="25" height="20"
		style="fill:url(#linearGradient1037);fill-opacity:1;stroke:White;stroke-width:1;stroke-linecap:round;stroke-linejoin:round" />

	<!--  Logo keys option : ⌘ -->
<!--
	<text id="S_kb6b" class="T_Command" x="96" y="256" >⌘</text>
-->

	<!--  Logo keys option : Tux -->
<!--	<g id="S_kb6b">
		<path id="Tux_a" style="fill:Black;stroke:none"		d="m 105.81,252.42 c 0.54,-1.59 0.19,-3.48 -0.19,-4.99 -0.69,-2.65 -1.726,-3.25 -2.463,-4.2 -1.18,-1.47 -2.211,-3.36 -2.196,-4.42 0.113,-2.68 -0.114,-7.74 -4.838,-7.74 h -0.605 c -5.234,0.48 -3.571,6.08 -3.568,7.89 0,2.23 0.39,1.89 -1.027,3.86 -1.111,1.51 -1.418,1.36 -1.845,2.45 -0.189,0.46 -0.514,1.7 -0.937,2.72 -0.412,1.03 -1.777,2.46 -1.108,3.9 l 5.737,8.2 c 0.341,0 0.575,0 0.613,-0.57 h 2.661 2.475 c 0.473,0 1.1,-0.1 1.58,0.32 z" />
		<path id="Tux_b" style="fill:White;stroke:none"		d="m 100.35,255.4 c -0.227,0.42 -2.377,2.19 -3.148,2.35 -4.316,0.94 -4.279,-0.38 -5.344,-1.36 0.699,0 1.145,-0.38 1.205,-0.65 0.227,-0.9 -0.638,-1.32 -1.999,-2.49 -0.877,-0.76 -1.209,-1.06 -1.674,-1.48 -0.378,-2.72 1.145,-5.06 1.916,-6.38 0.113,-1.85 1.107,-3.03 1.515,-3.63 0,-0.79 0,-1.17 0.189,-1.36 h 5.363 c 0,0 0.152,0 0.303,0.38 -0.114,0.64 1.429,1.85 1.436,4.12 0.877,0.37 2.476,3.81 1.618,7.29 z" />
		<ellipse id="Tux_c" rx="1.48" ry="1.93" cx="97.19" cy="237.22" style="fill:White;stroke:none" />
		<path id="Tux_d" style="fill:Silver;stroke:none"	d="m 98.57,236.6 c -0.452,-0.51 -0.833,-0.52 -1.4,-0.54 -0.525,0 -0.97,0.18 -1.314,0.29 0.34,-0.9 1.037,-1.07 1.33,-1.09 0.593,0 1.342,0.72 1.384,1.34 z" />
		<ellipse id="Tux_e" cx="93.46" cy="237.15" rx="1.07" ry="1.88" style="fill:White;stroke:none" />
		<path id="Tux_f" style="fill:Silver;stroke:none"	d="m 92.433,236.66 c 0.227,-0.38 0.508,-0.57 0.938,-0.61 h 0.964 c -0.301,-0.71 -0.758,-0.82 -0.99,-0.79 -0.547,0.1 -0.853,0.9 -0.912,1.4 z" />
		<path id="Tux_g" style="fill:DarkGray;stroke:none"	d="m 93.012,240.4 5.374,-0.21 c 0,0 0.14,0.21 0.291,0.58 0,0.42 0.155,0.54 0.495,1.15 -0.303,-0.38 -0.608,-0.62 -1.016,-0.58 -0.151,0 -1.349,0.91 -1.603,0.98 -0.302,0 -1.557,1.02 -1.889,1.02 -1.104,0 -0.985,-1.12 -1.841,-1.58 0,-0.8 0,-1.17 0.189,-1.36 z" />
		<path id="Tux_h" style="fill:White;stroke:none"		d="m 89.849,245.84 c -0.567,0.83 -0.982,1.81 -1.27,2.8 -0.113,0.56 -0.151,1.17 -0.113,1.77 -0.113,0 -0.378,0 -0.302,0 0.08,0 0.378,0 0.378,0.38 0.151,0.46 0.548,0.8 0.941,1.06 -0.04,0 0,-0.38 -0.151,-0.45 -0.53,-0.38 -0.639,-1.02 -0.632,-1.63 0,-1.21 0.454,-2.38 1.017,-3.44 0.08,-0.38 0.302,-0.41 0.302,-0.68 -0.04,0 -0.08,0 -0.151,0 z" />
		<path id="Tux_i" style="fill:White;stroke:none"		d="m 101.25,245.12 c 0.303,0.38 0.7,0.38 0.979,0.65 0.666,0.56 1.217,1.36 1.319,2.26 0.152,1.06 -0.189,2.12 -0.54,3.1 -0.544,0 -0.964,0.49 -1.33,0.87 -0.189,0.38 0.151,0 0.264,0 0.34,-0.38 0.665,-0.6 1.119,-0.57 0.623,0 1.274,0 1.844,0.38 0.11,0 0.11,0 0.11,0.38 -0.11,0.38 -0.26,0.49 -0.34,0.79 0.34,-0.37 0.6,-0.6 0.99,-0.75 0.11,0 -0.1,-0.38 -0.11,-0.38 -0.43,-0.53 -1.16,-0.57 -1.772,-0.6 -0.151,0 -0.265,0 -0.408,0 0.189,-0.84 0.566,-1.71 0.6,-2.57 -0.08,-1.29 -0.691,-2.54 -1.765,-3.22 -0.264,0 -0.578,-0.38 -0.884,-0.38 z" />
		<path id="Tux_j" style="fill:Silver;stroke:none"	d="m 93.859,253.06 c -0.189,0 -0.265,-0.38 -0.265,-0.61 -0.07,-2 0.114,-4.3 0.152,-4.49 0,0 0.04,0 0.189,-0.38 h 0.189 c -0.08,0 -0.114,0 -0.114,0.38 0,0.68 -0.113,2.49 -0.113,4.23 0,0 0,0.38 0.07,0.42 0.08,0 0.04,0.37 -0.07,0.37 z m 6.078,-8.12 c 0.407,0.29 0.91,0.86 1.198,1.81 h -0.303 c -1.489,-1.82 -3.7,-1.25 -4.165,-2.19 1.697,0.37 2.53,0 3.097,-0.61 0.137,0.28 0.197,0.67 0.174,0.99 z m 0.502,8.23 0.151,1.93 c -0.08,0 -0.151,0.38 -0.461,0.53 -0.665,-0.64 -0.646,-2.65 0.303,-2.46 z m -9.603,-6.99 c 0.189,-0.38 0.34,-0.57 0.472,-0.79 0,-0.46 0.113,-0.87 0.227,-1.25 0.226,0.6 1.031,0.83 1.031,0.83 -0.933,0 -1.213,0.76 -1.719,1.21 z m 3.726,-2 c 0.08,0.45 0.514,0.53 0.998,0.56 -0.484,0 -0.93,0 -1.172,0.95 -0.08,-0.42 0,-0.83 -0.673,-1.02 0.541,0 0.662,-0.38 0.847,-0.49 z" />
		<ellipse id="Tux_k" cx="97.24" cy="237.3" rx="0.79" ry="0.97" style="fill:Black;stroke:none" />
		<ellipse id="Tux_l" cx="45.153" cy="250.56" rx="0.6" ry="0.97" style="fill:Black;stroke:none" transform="matrix(0.98279,-0.18474,0.19591,0.98062,0,0)" />
		<path id="Tux_m" style="fill:Black;stroke:none"		d="m 95.14,237 c 0.575,0 0.82,0.41 0.926,0.71 h -1.757 c 0.151,-0.37 0.302,-0.75 0.831,-0.71 z" />
		<path id="Tux_n" style="fill:Orange;stroke:none"	d="m 98.285,238.7 v 0 0 c -0.692,-0.38 -0.998,-0.38 -1.391,-0.57 -0.627,-0.38 -1.357,-0.64 -1.803,-0.57 -0.514,0 -1.047,0 -1.508,0.61 -0.416,0.38 -1.383,0.91 -1.126,1.66 0.113,0.38 0.544,0.53 0.82,0.83 0.533,0.57 0.756,1.17 1.825,1.14 0.681,0 0.866,0 1.225,-0.38 0.378,-0.38 0.574,-0.38 0.971,-0.72 0.446,-0.38 1.047,-0.38 1.266,-0.79 0.08,-0.38 -0.08,-0.25 -0.12,-0.5 0.294,-0.45 -0.11,-0.62 -0.159,-0.71 z" />
		<path id="Tux_o" style="fill:DimGray;stroke:none"	d="m 95.121,240.7 c -0.75,0.1 -1.417,-0.1 -1.821,-0.38 -0.352,-0.26 -0.545,-0.38 -0.824,-0.6 0.151,0 0.595,0.32 0.665,0.38 0.642,0.52 1.364,0.45 1.961,0.41 0.604,0 1.407,-0.41 1.811,-0.68 0.518,-0.34 0.911,-0.87 1.202,-0.6 -0.34,0 -0.621,0.39 -1.111,0.71 -0.489,0.32 -1.203,0.71 -1.883,0.76 z" />
		<path id="Tux_p" style="fill:#202020;stroke:none"	d="m 95.473,237.98 c 0,0 0.151,0 0.189,0 0.07,0 0.113,0 0.189,0 0.08,0 0.151,0 0.151,0 0,0 -0.113,0 -0.189,0 -0.113,0 -0.227,0 -0.34,0 0,0 -0.08,0 -0.08,0 z" />
		<path id="Tux_q" style="fill:Silver;stroke:none"	d="m 100.36,240.56 c 0.106,0 0.06,0 0.133,0.1 0.09,0.11 0.04,0.14 0.155,0.25 0.117,0.11 0.185,0 0.366,0.24 -0.324,0.1 -0.557,0.46 -1,0.59 -0.119,-0.37 -0.116,-0.7 -0.395,-1.07 -0.1,-0.17 -0.295,-0.51 -0.22,-0.59 0.25,-0.12 0.792,0.44 0.961,0.5 z m -6.936,-3.87 c 0.273,0.1 0.468,0.43 0.425,0.94 -0.124,-0.22 -0.165,-0.37 -0.236,-0.5 -0.04,-0.1 -0.136,-0.16 -0.189,-0.25 -0.06,-0.11 -0.08,-0.21 0,-0.19 z m 4.389,0.31 c 0.04,0.1 -0.08,0.18 -0.178,0.16 -0.109,-0.13 -0.102,-0.29 -0.276,-0.42 -0.06,0 -0.174,-0.17 -0.166,-0.23 0.405,0 0.562,0.35 0.62,0.49 z m -0.07,-4.39 c -0.121,-0.36 0.552,0 0.545,0.38 0,0.38 -0.604,0.78 -0.605,0.57 -10e-4,-0.16 0.162,-0.65 0.06,-0.95 z" />
		<path id="Tux_r" style="fill:Orange;stroke:Gray;stroke-width:0.2" d="m 100.59,252.76 c -0.226,1.55 0.227,2.76 -0.189,4.27 -0.226,0.72 -0.506,2.04 -0.189,2.79 0.34,0.76 1.444,1.18 2.242,0.95 1.05,-0.38 1.906,-1.17 2.716,-1.85 0.42,-0.38 0.96,-0.61 1.48,-0.83 0.65,-0.38 1.82,-0.99 1.77,-1.59 -0.1,-0.87 -0.85,-0.53 -1.63,-1.63 -0.22,-0.37 -0.62,-0.68 -0.54,-1.62 0,-0.38 -0.34,-0.68 -0.66,-0.8 -0.37,0 -0.59,0.69 -0.74,0.95 -0.38,0.79 -1.731,1.02 -2.438,0.38 -0.34,-0.38 -0.189,-1.4 -0.665,-1.55 -0.824,-0.38 -1.085,0 -1.164,0.53 z" />
		<path id="Tux_s" style="fill:Orange;stroke:Gray;stroke-width:0.2" d="m 86.13,253.32 c -0.567,0 -1.595,0 -1.89,0.38 -0.662,0.53 -0.04,2.23 0,2.8 0.08,0.6 -0.662,1.47 -0.662,2.08 0,0.38 1.381,0.56 1.883,0.68 0.983,0.38 2.325,0.45 3.489,1.02 0.911,0.45 1.893,0.6 2.898,0.38 0.616,0 1.047,-0.87 0.888,-1.55 -0.377,-1.52 -1.103,-2.54 -1.93,-3.74 -0.764,-1.06 -1.735,-3.67 -2.839,-3.63 -1.104,0 -1.149,1.55 -1.837,1.58 z" />
		<path id="Tux_t" style="fill:DarkGray;stroke:DarkGray;stroke-width:0.13" d="m 102.27,253.55 c 0,0 0.152,1.13 1.251,1.21 0.881,0 1.321,-1.32 1.321,-1.32 -0.52,0.94 -1.986,1.09 -2.572,0 z" />
		<path id="Tux_u" style="fill:Gray;stroke:none"		d="m 100.26,257.94 c -0.113,0 -0.4,2.34 0.571,2.6 0.533,0 1.092,0.38 1.625,0.38 1.058,-0.38 2.989,-2.19 2.989,-2.19 -0.89,0.57 -2.928,1.74 -4.092,1.4 -0.821,-0.38 -1.146,-1.06 -1.093,-2.04 z m -8.009,0 c 0.824,0.83 0.586,2.6 -0.381,2.75 -0.911,0 -1.909,0.38 -2.899,-0.37 -0.672,-0.38 -2.158,-0.8 -2.158,-0.8 1.512,0 3.303,0.72 4.569,0.38 0.575,0 1.221,-1.06 0.869,-2.04 z" />
		<path id="Tux_v" style="fill:DimGray;stroke:none"	d="m 94.577,237.84 c 0,-0.1 -0.212,0 -0.306,0.1 -0.09,0 -0.337,0.11 -0.261,0.24 0.07,0.13 0.177,-0.1 0.302,-0.12 0.11,0 0.257,-0.1 0.261,-0.18 z m 0.839,0 c 0.07,0 0.17,0 0.299,0 0.223,0 0.317,0.1 0.298,0.25 -0.04,0.31 -0.257,0 -0.383,0 -0.102,0 -0.359,-0.2 -0.215,-0.24 z" />
	</g>
-->
  <use id="S_kb6l" xlink:href="#S_kb6b" transform="translate(556,0)" x="0" y="0" width="1" height="1" />
  <!--  Menu key   -->
  <g id="S_kb6m">
	<rect id="Menu-1" style="fill:#d2cfcf;stroke:Black;stroke-width:1;stroke-linecap:round;stroke-linejoin:round"
		x="694" y="236" width="16" height="20" />
	<path id="Menu-2" style="fill:none;stroke:Black;stroke-width:4;stroke-linecap:square;stroke-linejoin:miter"
		d="m 695.5,237 l 13,0 m -13,5 l 13,0" />
	<path id="Menu-3" style="fill:none;stroke:Black;stroke-width:2;stroke-linecap:square;stroke-linejoin:miter"
		d="m 697,245 l 10,0 m -10,4 l 10,0 m -10,4 l 10,0" />
	<path id="Menu-4" style="fill:none;stroke:#d2cfcf;stroke-width:2;stroke-linecap:square;stroke-linejoin:miter"
		d="m 698,241 l 10,0" />
	<path id="Menu-arrow" style="fill:#d2cfcf;stroke:Black;stroke-width:1.4;stroke-linecap:butt;stroke-linejoin:round"
		d="m 710,253 l 2,-2 l 4,4 l 2,-2 l -4,-4 l 2,-2 l -11,-5 l 5,11 z" />
  </g>
  <!--	Backspace	 -->
  <path id="S_kb2n" style="fill:none;stroke:Black;stroke-width:2;marker-end:url(#TriangleOutM)" d="m 742,30 l -20,0" />

  <!-- ========	 Alternates signs	======== -->
  <g inkscape:groupmode="layer" id="alternative_signs" inkscape:label="alternative signs">
	<!-- Tabulations  -->
	<path id="S_kb3a-l1" style="fill:none;stroke:Black;stroke-width:2;marker-end:url(#TriangleOutM)" d="m 38,76 l -20,0" />
	<path id="S_kb3a-l2" style="fill:none;stroke:Black;stroke-width:2" d="m 12,70 l 0,12" />
	<path id="S_kb3a-r1" style="fill:none;stroke:Black;stroke-width:2;marker-end:url(#TriangleOutM)" d="m 12,92 l 20,0" />
	<path id="S_kb3a-r2" style="fill:none;stroke:Black;stroke-width:2" d="m 38,86 l 0,12" />
	<!-- Shift  -->
	<path id="S_kb5a" style="fill:none;stroke:Black;stroke-width:2"
		d="m 22,184 l -8,8 l 4,0 l 0,6 l 8,0 l 0,-6 l 4,0 z" />
	<use  id="S_kb5n" xlink:href="#S_kb5a" transform="translate(660,0)" x="0" y="0" width="1" height="1" />
	<!-- Enter  -->
	<path id="S_kb3n" style="fill:none;stroke:Black;stroke-width:2;marker-end:url(#TriangleOutM)"
		d="m 788,128 l 0,8 l -18,0" />
	<!-- Caps Lock  -->
	<g id="S_kb4a">
		<rect id="CapsLock-1" x="14" y="134" width="18" height="14" ry="1" rx="1"
			style="fill:none;stroke:Black;stroke-width:1.6"  />
		<path id="CapsLock-2"
			style="fill:none;stroke:Black;stroke-width:1.4"
			d="m 16,134 v -3 a 7,6 0 1 1 14,0 v 3 m -12,0 v -3 a 5,4 0 1 1 10,0 v 3"  />
		<ellipse id="CapsLock-3" cx="23" cy="139" rx="1" ry="2"
			sodipodi:cx="23" sodipodi:cy="139" sodipodi:rx="1" sodipodi:ry="2"
			style="fill:none;stroke:Black;stroke-width:1.2" />
	</g>
  </g>
</g>
<!-- ========	 Inscriptions layer	======== -->
<g inkscape:groupmode="layer" id="fr-fr" inkscape:label="incriptions">

  <g id="T_digits">
	<text id="T_kb2b2" x="72"  y="26" >1</text> 
	<text id="T_kb2c2" x="126" y="26" >2</text>
	<text id="T_kb2d2" x="180" y="26" >3</text>
	<text id="T_kb2e2" x="234" y="26" >4</text>
	<text id="T_kb2f2" x="288" y="26" >5</text>
	<text id="T_kb2g2" x="342" y="26" >6</text>
	<text id="T_kb2h2" x="396" y="26" >7</text>
	<text id="T_kb2i2" x="450" y="26" >8</text>
	<text id="T_kb2k2" x="504" y="26" >9</text>
	<text id="T_kb2l2" x="558" y="26" >0</text>
  </g>
  <g id="T_stdspecial">
	<text id="T_kb2a1" x="18"  y="46" >²</text>
	<text id="T_kb2b1" x="72"  y="46" >&amp;</text>
	<text id="T_kb2c1" x="126" y="46" >é</text>
	<text id="T_kb2d1" x="180" y="46" >&quot;</text>
	<text id="T_kb2e1" x="234" y="46" >'</text>
	<text id="T_kb2f1" x="288" y="46" >(</text>
	<text id="T_kb2g1" x="342" y="46" >-</text>
	<text id="T_kb2h1" x="396" y="46" >è</text>
	<text id="T_kb2i1" x="450" y="38" >_</text>
	<text id="T_kb2j1" x="504" y="46" >ç</text>
	<text id="T_kb2k1" x="558" y="46" >à</text>
	<text id="T_kb2l1" x="612" y="46" >)</text>
	<text id="T_kb2m1" x="666" y="46" >=</text>

	<text id="T_kb2m2" x="612" y="26">°</text>
	<text id="T_kb2n2" x="666" y="26">+</text>

	<text id="T_kb3l1" x="638" y="102" class="T_DeadKey">^</text>
	<text id="O_kb3l1" x="638" y="104" class="O_DeadKey">◌</text> 
	<text id="T_kb3m1" x="692" y="102" >$</text>

	<text id="T_kb3l2" x="638" y="81"  class="T_DeadKey" >¨</text>
	<text id="O_kb3l2" x="638" y="81"  class="O_DeadKey">◌</text> 
	<text id="T_kb3m2" x="692" y="81" >£</text>

	<text id="T_kb4l1" x="654" y="156" >ù</text>
	<text id="T_kb4m1" x="708" y="156" >∗</text>

	<text id="T_kb4l2" x="654" y="135" >%</text>
	<text id="T_kb4m2" x="708" y="135" >µ</text>

	<text id="T_kb5b1" x="80"  y="208" >&lt;</text>
	<text id="T_kb5i1" x="458" y="208" >,</text>
	<text id="T_kb5j1" x="512" y="208" >;</text>
	<text id="T_kb5k1" x="566" y="208" >:</text>
	<text id="T_kb5l1" x="620" y="210" >!</text>

	<text id="T_kb5b2" x="80"  y="186" >&gt;</text>
	<text id="T_kb5i2" x="458" y="188" >?</text>
	<text id="T_kb5j2" x="512" y="186" >.</text>
	<text id="T_kb5k2" x="566" y="186" >/</text>
	<text id="T_kb5l2" x="620" y="186" >§</text>
  </g>
  <g id="T_stdletters">
	<text id="T_kb3b"  x="98"  y="81" >A</text>
	<text id="T_kb3c"  x="152" y="81" >Z</text>
	<text id="T_kb3d"  x="206" y="81" >E</text>
	<text id="T_kb3e"  x="260" y="81" >R</text>
	<text id="T_kb3f"  x="314" y="81" >T</text>
	<text id="T_kb3g"  x="368" y="81" >Y</text>
	<text id="T_kb3h"  x="422" y="81" >U</text>
	<text id="T_kb3i"  x="476" y="81" >I</text>
	<text id="T_kb3j"  x="530" y="81" >O</text>
	<text id="T_kb3k"  x="584" y="81" >P</text>

	<text id="T_kb4b"  x="114" y="135" >Q</text>
	<text id="T_kb4c"  x="168" y="135" >S</text>
	<text id="T_kb4d"  x="222" y="135" >D</text>
	<text id="T_kb4e"  x="276" y="135" >F</text>
	<text id="T_kb4f"  x="330" y="135" >G</text>
	<text id="T_kb4g"  x="384" y="135" >H</text>
	<text id="T_kb4h"  x="438" y="135" >J</text>
	<text id="T_kb4i"  x="492" y="135" >K</text>
	<text id="T_kb4j"  x="546" y="135" >L</text>
	<text id="T_kb4k"  x="600" y="135" >M</text>

	<text id="T_kb5c"  x="134" y="189" >W</text>
	<text id="T_kb5d"  x="188" y="189" >X</text>
	<text id="T_kb5e"  x="242" y="189" >C</text>
	<text id="T_kb5f"  x="296" y="189" >V</text>
	<text id="T_kb5g"  x="350" y="189" >B</text>
	<text id="T_kb5h"  x="404" y="189" >N</text>
  </g>

  <g id="T_AltGr">
	<text id="T_kb2c3" x="150" y="45" >~</text>
	<text id="T_kb2d3" x="204" y="46" >#</text>
	<text id="T_kb2e3" x="258" y="46" >{</text>
	<text id="T_kb2f3" x="312" y="46" >[</text>
	<text id="T_kb2g3" x="366" y="46" >¦</text>
	<text id="T_kb2h3" x="420" y="46" >`</text>
	<text id="T_kb2i3" x="474" y="46" >\</text>
	<text id="T_kb2j3" x="528" y="46" >^</text>
	<text id="T_kb2k3" x="582" y="46" >@</text>
	<text id="T_kb2l3" x="636" y="46" >]</text>
	<text id="T_kb2m3" x="690" y="46" >}</text>

	<text id="T_kb3d3" x="230" y="102" >€</text>
	<text id="T_kb3m3" x="716" y="102" >¤</text>
  </g>
  <g id="T_others">
	<text id="T_kb6a" x="10"  y="252" >Ctrl</text>
	<text id="T_kb6c" x="138" y="252" >Alt</text>
	<text id="T_kb6k" x="568" y="252" >Alt Gr</text>
	<text id="T_kb6n" x="750" y="252" >Ctrl</text>
  </g>
  <!-- ========	 alternates inscriptions	======== -->
  <g inkscape:groupmode="layer" id="T_alterninsc" inkscape:label="alternative inscriptions">
	<text id="T_kb2Oa" x="752" y="26"  >Suppr</text>
	<text id="T_kb2Ob" x="752" y="44"  >arrière</text>

	<text id="T_kb3A"  x="42"  y="90"  >Tab</text>
	<text id="T_kb3N"  x="750" y="90"  >Entrée</text>

	<text id="T_kb4Aa" x="40"  y="134" >Verr.</text>
	<text id="T_kb4Ab" x="40"  y="152" >Maj.</text>

	<text id="T_kb5Aa" x="36"  y="199" >Maj.</text>
	<text id="T_kb5M"  x="700" y="198" >Majuscule</text>

  </g>
</g>
</svg>